<svg xmlns="http://www.w3.org/2000/svg" xmlns:xlink="http://www.w3.org/1999/xlink" version="1.1" x="0px" y="0px" viewBox="0 0 32 40" enable-background="new 0 0 32 32" xml:space="preserve"><g display="none"><rect x="-379.099" y="-124.63" display="inline" fill="#fff" width="531.376" height="207.333"/></g><g><g><path fill="#fff" d="M17.341,31.847v-3.346c2.325-0.333,4.141-1.24,5.448-2.719c1.305-1.479,1.958-3.298,1.958-5.455    c0-1.932-0.519-3.516-1.556-4.75c-1.038-1.234-2.987-2.24-5.85-3.015V5.571c1.157,0.501,1.872,1.455,2.146,2.861l4.526-0.591    c-0.311-1.788-1.026-3.216-2.146-4.283c-1.122-1.068-2.631-1.715-4.527-1.941v-1.77h-2.592v1.77    c-2.051,0.203-3.695,0.969-4.929,2.3C8.586,5.245,7.968,6.887,7.968,8.843c0,1.932,0.547,3.574,1.638,4.929    c1.09,1.353,2.804,2.364,5.143,3.031v7.495c-0.645-0.311-1.229-0.812-1.753-1.503c-0.525-0.691-0.883-1.514-1.073-2.468    l-4.669,0.501c0.358,2.349,1.181,4.166,2.468,5.455c1.289,1.287,2.963,2.057,5.027,2.307v3.256H17.341z M17.341,17.572    c1.073,0.311,1.846,0.755,2.316,1.333c0.472,0.578,0.708,1.267,0.708,2.066c0,0.894-0.282,1.673-0.841,2.335    c-0.561,0.662-1.289,1.077-2.183,1.243V17.572z M13.012,10.39c-0.38-0.541-0.572-1.128-0.572-1.761    c0-0.691,0.208-1.324,0.627-1.896c0.417-0.574,0.978-0.978,1.682-1.218v6.19C13.972,11.371,13.394,10.933,13.012,10.39z"/></g></g><g display="none"><g display="inline" opacity="0.42"><path fill="#fff" d="M14.749,24.298v-7.495c-2.338-0.667-4.053-1.678-5.143-3.031c-1.091-1.355-1.638-2.996-1.638-4.929    c0-1.956,0.618-3.598,1.852-4.927c1.234-1.331,2.878-2.097,4.929-2.3v-1.77h2.592v1.77c1.896,0.227,3.404,0.874,4.527,1.941    c1.121,1.068,1.835,2.495,2.146,4.283l-4.527,0.59c-0.274-1.406-0.989-2.36-2.146-2.861v6.993c2.863,0.775,4.812,1.781,5.85,3.015    c1.037,1.234,1.556,2.817,1.556,4.75c0,2.157-0.653,3.976-1.958,5.455c-1.307,1.479-3.122,2.386-5.448,2.718v3.346h-2.592v-3.256    c-2.064-0.25-3.739-1.02-5.027-2.307c-1.287-1.289-2.11-3.106-2.468-5.455l4.669-0.501c0.19,0.954,0.548,1.777,1.073,2.468    S14.103,23.987,14.749,24.298z M14.749,5.516c-0.704,0.239-1.265,0.644-1.682,1.218c-0.419,0.572-0.627,1.205-0.627,1.896    c0,0.633,0.192,1.219,0.572,1.761c0.382,0.543,0.96,0.982,1.737,1.316V5.516z M17.341,24.549c0.894-0.166,1.622-0.581,2.183-1.243    c0.559-0.662,0.841-1.441,0.841-2.335c0-0.799-0.236-1.488-0.707-2.066c-0.47-0.578-1.243-1.022-2.316-1.333V24.549z"/></g></g><g display="none"><path display="inline" fill="#fff" d="M14.749,24.298v-7.495c-2.338-0.667-4.053-1.678-5.143-3.031   c-1.091-1.355-1.638-2.996-1.638-4.929c0-1.956,0.618-3.598,1.852-4.927c1.234-1.331,2.878-2.097,4.929-2.3v-1.77h2.592v1.77   c1.896,0.227,3.404,0.874,4.527,1.941c1.121,1.068,1.835,2.495,2.146,4.283l-4.527,0.59c-0.274-1.406-0.989-2.36-2.146-2.861v6.993   c2.863,0.775,4.812,1.781,5.85,3.015c1.037,1.234,1.556,2.817,1.556,4.75c0,2.157-0.653,3.976-1.958,5.455   c-1.307,1.479-3.122,2.386-5.448,2.718v3.346h-2.592v-3.256c-2.064-0.25-3.739-1.02-5.027-2.307   c-1.287-1.289-2.11-3.106-2.468-5.455l4.669-0.501c0.19,0.954,0.548,1.777,1.073,2.468S14.103,23.987,14.749,24.298z M14.749,5.516   c-0.704,0.239-1.265,0.644-1.682,1.218c-0.419,0.572-0.627,1.205-0.627,1.896c0,0.633,0.192,1.219,0.572,1.761   c0.382,0.543,0.96,0.982,1.737,1.316V5.516z M17.341,24.549c0.894-0.166,1.622-0.581,2.183-1.243   c0.559-0.662,0.841-1.441,0.841-2.335c0-0.799-0.236-1.488-0.707-2.066c-0.47-0.578-1.243-1.022-2.316-1.333V24.549z"/></g><g display="none"><path display="inline" fill="#fff" d="M14.749,24.298v-7.495c-2.338-0.667-4.053-1.678-5.143-3.031   c-1.091-1.355-1.638-2.996-1.638-4.929c0-1.956,0.618-3.598,1.852-4.927c1.234-1.331,2.878-2.097,4.929-2.3v-1.77h2.592v1.77   c1.896,0.227,3.404,0.874,4.527,1.941c1.121,1.068,1.835,2.495,2.146,4.283l-4.527,0.59c-0.274-1.406-0.989-2.36-2.146-2.861v6.993   c2.863,0.775,4.812,1.781,5.85,3.015c1.037,1.234,1.556,2.817,1.556,4.75c0,2.157-0.653,3.976-1.958,5.455   c-1.307,1.479-3.122,2.386-5.448,2.718v3.346h-2.592v-3.256c-2.064-0.25-3.739-1.02-5.027-2.307   c-1.287-1.289-2.11-3.106-2.468-5.455l4.669-0.501c0.19,0.954,0.548,1.777,1.073,2.468S14.103,23.987,14.749,24.298z M14.749,5.516   c-0.704,0.239-1.265,0.644-1.682,1.218c-0.419,0.572-0.627,1.205-0.627,1.896c0,0.633,0.192,1.219,0.572,1.761   c0.382,0.543,0.96,0.982,1.737,1.316V5.516z M17.341,24.549c0.894-0.166,1.622-0.581,2.183-1.243   c0.559-0.662,0.841-1.441,0.841-2.335c0-0.799-0.236-1.488-0.707-2.066c-0.47-0.578-1.243-1.022-2.316-1.333V24.549z"/></g></svg>
