<svg xmlns="http://www.w3.org/2000/svg" xmlns:xlink="http://www.w3.org/1999/xlink" version="1.1" x="0px" y="0px" viewBox="0 0 91 113.75" enable-background="new 0 0 91 91" xml:space="preserve"><g><g><g><path fill="#fff" d="M13.366,63.769c9.158,7.424,19.506,11.699,32.48,11.605c5.861,0.041,12.537-1.02,18.65-4.314     c9.172-4.943,17.607-10.859,24.268-19.037c2.678-3.287,2.791-7.512-0.074-10.598c-6.277-6.752-13.379-12.551-21.271-17.291     c-14.266-8.568-28.791-8.535-43.377-0.746c-6.063,3.24-11.438,7.477-16.885,11.639c-3.398,3.641-5.078,6.256-6.463,9.307     c-0.424,0.938-0.635,1.988-0.408,2.992c0.785,3.473,1.959,5.418,4.762,9.201C7.233,59.474,10.509,61.452,13.366,63.769z      M42.729,28.642c11.229-0.822,20.053,6.811,20.846,18.025c0.695,9.85-7.471,18.959-17.617,19.645     c-10.342,0.697-19.418-7.221-20.162-17.598C25.079,38.7,32.962,29.356,42.729,28.642z"/><path fill="#fff" d="M44.837,56.218c5.004,0.055,8.883-3.732,8.918-8.699c0.033-4.873-3.754-8.756-8.631-8.85     c-4.908-0.094-8.889,3.803-8.914,8.732C36.181,52.29,39.974,56.167,44.837,56.218z"/></g></g></g></svg>
