<svg xmlns="http://www.w3.org/2000/svg" xmlns:xlink="http://www.w3.org/1999/xlink" xml:space="preserve" version="1.1" style="shape-rendering:geometricPrecision;text-rendering:geometricPrecision;image-rendering:optimizeQuality;" viewBox="0 0 847 1058.75" x="0px" y="0px" fill-rule="evenodd" clip-rule="evenodd"><defs><style type="text/css">

    .fil0 {fill:white}

  </style></defs><g><path class="fil0" d="M102 158c19,-19 37,-37 56,-56 88,89 177,177 265,266 89,-89 178,-177 266,-266 19,19 37,37 56,56 -89,88 -178,177 -266,265 88,89 177,178 266,266 -19,19 -37,37 -56,56 -88,-89 -177,-178 -266,-266 -88,88 -177,177 -265,266 -19,-19 -37,-37 -56,-56 89,-88 177,-177 266,-266 -89,-88 -177,-177 -266,-265z"/></g></svg>
