<svg xmlns:dc="http://purl.org/dc/elements/1.1/" xmlns:cc="http://creativecommons.org/ns#" xmlns:rdf="http://www.w3.org/1999/02/22-rdf-syntax-ns#" xmlns:svg="http://www.w3.org/2000/svg" xmlns="http://www.w3.org/2000/svg" xmlns:sodipodi="http://sodipodi.sourceforge.net/DTD/sodipodi-0.dtd" xmlns:inkscape="http://www.inkscape.org/namespaces/inkscape" version="1.1" x="0px" y="0px" viewBox="0 0 100 125"><g transform="translate(0,-952.36218)"><path style="text-indent:0;text-transform:none;direction:ltr;block-progression:tb;baseline-shift:baseline;color:#fff;enable-background:accumulate;" d="m 127.96964,1096.5028 a 1.9988085,2.001592 0 0 1 -1.83195,-2.2237 l 1.55439,-13.314 -9.07651,-9.8119 a 1.9988085,2.001592 0 0 1 1.08251,-3.3354 l 13.12902,-2.6128 6.52288,-11.6742 a 1.9988085,2.001592 0 0 1 3.49737,0 l 6.52287,11.702 13.10127,2.585 a 1.9988085,2.001592 0 0 1 1.08252,3.3354 l -9.07651,9.8397 1.58214,13.2862 a 1.9988085,2.001592 0 0 1 -2.8312,2.0569 l -12.12978,-5.6147 -12.15752,5.6147 a 1.9988085,2.001592 0 0 1 -0.9715,0.1668 z m 2.55364,-5.309 9.74268,-4.5028 a 1.9988085,2.001592 0 0 1 1.66541,0 l 9.74268,4.5028 -1.27682,-10.6735 a 1.9988085,2.001592 0 0 1 0.52738,-1.5843 l 7.30007,-7.894 -10.54763,-2.0846 a 1.9988085,2.001592 0 0 1 -1.36009,-0.9729 l -5.2183,-9.3671 -5.24605,9.3671 a 1.9988085,2.001592 0 0 1 -1.36009,0.9729 l -10.51987,2.0846 7.30007,7.894 a 1.9988085,2.001592 0 0 1 0.49962,1.5843 l -1.24906,10.6735 z" fill="#fff" fill-opacity="1" stroke="none" marker="none" visibility="visible" display="inline" overflow="visible"/><path style="color:#fff;enable-background:accumulate;" d="M 50,973.36218 40.48559,992.1134 20,995.51621 34.60537,1010.508 31.45898,1031.3622 50,1021.8764 68.54102,1031.3622 65.39462,1010.508 80,995.51621 59.51441,992.1134 z" fill="#fff" stroke="none" marker="none" visibility="visible" display="inline" overflow="visible"/></g></svg>
